{
  "accessors": [
    {
      "bufferView": 2,
      "componentType": 5126,
      "count": 18368,
      "max": [
        2.493309497833252,
        6.484395503997803,
        2.518219470977783
      ],
      "min": [
        -2.913335084915161,
        0.0,
        -2.9490883350372314
      ],
      "type": "VEC3"
    },
    {
      "bufferView": 2,
      "byteOffset": 220416,
      "componentType": 5126,
      "count": 18368,
      "max": [
        0.999893307685852,
        0.9996427297592163,
        0.9999668598175049
      ],
      "min": [
        -0.9999890327453613,
        -0.9999205470085144,
        -0.999993085861206
      ],
      "type": "VEC3"
    },
    {
      "bufferView": 1,
      "componentType": 5126,
      "count": 18368,
      "max": [
        1.0,
        1.0
      ],
      "min": [
        0.0,
        0.0
      ],
      "type": "VEC2"
    },
    {
      "bufferView": 0,
      "componentType": 5125,
      "count": 87696,
      "type": "SCALAR"
    },
    {
      "bufferView": 2,
      "byteOffset": 440832,
      "componentType": 5126,
      "count": 29644,
      "max": [
        2.6344592571258545,
        6.822380542755127,
        2.8487801551818848
      ],
      "min": [
        -3.1500933170318604,
        0.787339448928833,
        -3.1970789432525635
      ],
      "type": "VEC3"
    },
    {
      "bufferView": 2,
      "byteOffset": 796560,
      "componentType": 5126,
      "count": 29644,
      "max": [
        0.9983636736869812,
        0.9999200701713562,
        0.9994727969169617
      ],
      "min": [
        -0.9988042712211609,
        -0.7034688591957092,
        -0.9989229440689087
      ],
      "type": "VEC3"
    },
    {
      "bufferView": 1,
      "byteOffset": 146944,
      "componentType": 5126,
      "count": 29644,
      "max": [
        0.6000000238418579,
        1.0
      ],
      "min": [
        0.4000000059604645,
        0.0
      ],
      "type": "VEC2"
    },
    {
      "bufferView": 0,
      "byteOffset": 350784,
      "componentType": 5125,
      "count": 57528,
      "type": "SCALAR"
    }
  ],
  "asset": {
    "extras": {
      "author": "MaxLeburo (https://sketchfab.com/MaxLeburo)",
      "license": "SKETCHFAB Standard (https://sketchfab.com/licenses)",
      "source": "https://sketchfab.com/3d-models/simple-tree-a3f4e00ecc384140a452abe91021aa0f",
      "title": "Simple Tree"
    },
    "generator": "Sketchfab-16.12.0",
    "version": "2.0"
  },
  "bufferViews": [
    {
      "buffer": 0,
      "byteLength": 580896,
      "name": "floatBufferViews",
      "target": 34963
    },
    {
      "buffer": 0,
      "byteLength": 384096,
      "byteOffset": 580896,
      "byteStride": 8,
      "name": "floatBufferViews",
      "target": 34962
    },
    {
      "buffer": 0,
      "byteLength": 1152288,
      "byteOffset": 964992,
      "byteStride": 12,
      "name": "floatBufferViews",
      "target": 34962
    }
  ],
  "buffers": [
    {
      "byteLength": 2117280,
      "uri": "scene.bin"
    }
  ],
  "extensionsUsed": [
    "KHR_materials_specular"
  ],
  "materials": [
    {
      "doubleSided": true,
      "extensions": {
        "KHR_materials_specular": {
          "specularColorFactor": [
            1.0,
            1.0,
            1.0
          ],
          "specularFactor": 0.24838170935378087
        }
      },
      "name": "stem.002",
      "pbrMetallicRoughness": {
        "baseColorFactor": [
          0.1002182397306339,
          0.06224507000972673,
          0.015931980097438077,
          1.0
        ],
        "metallicFactor": 0.0,
        "roughnessFactor": 0.4556204361765674
      }
    },
    {
      "doubleSided": true,
      "extensions": {
        "KHR_materials_specular": {
          "specularColorFactor": [
            1.0,
            1.0,
            1.0
          ],
          "specularFactor": 0.0
        }
      },
      "name": "stem.001",
      "pbrMetallicRoughness": {
        "baseColorFactor": [
          0.04115630222876451,
          0.12856811131236873,
          0.030054266239837493,
          1.0
        ],
        "metallicFactor": 0.0,
        "roughnessFactor": 0.30933427606636515
      }
    }
  ],
  "meshes": [
    {
      "name": "Object_0",
      "primitives": [
        {
          "attributes": {
            "NORMAL": 1,
            "POSITION": 0,
            "TEXCOORD_0": 2
          },
          "indices": 3,
          "material": 0,
          "mode": 4
        }
      ]
    },
    {
      "name": "Object_1",
      "primitives": [
        {
          "attributes": {
            "NORMAL": 5,
            "POSITION": 4,
            "TEXCOORD_0": 6
          },
          "indices": 7,
          "material": 1,
          "mode": 4
        }
      ]
    }
  ],
  "nodes": [
    {
      "children": [
        1
      ],
      "matrix": [
        1.0,
        0.0,
        0.0,
        0.0,
        0.0,
        2.220446049250313e-16,
        -1.0,
        0.0,
        0.0,
        1.0,
        2.220446049250313e-16,
        0.0,
        0.0,
        0.0,
        0.0,
        1.0
      ],
      "name": "Sketchfab_model"
    },
    {
      "children": [
        2
      ],
      "name": "root"
    },
    {
      "children": [
        3
      ],
      "matrix": [
        1.0,
        0.0,
        0.0,
        0.0,
        0.0,
        2.220446049250313e-16,
        1.0,
        0.0,
        0.0,
        -1.0,
        2.220446049250313e-16,
        0.0,
        0.0,
        0.0,
        0.0,
        1.0
      ],
      "name": "GLTF_SceneRootNode"
    },
    {
      "children": [
        4,
        5
      ],
      "matrix": [
        1.0,
        0.0,
        0.0,
        0.0,
        0.0,
        1.0,
        0.0,
        0.0,
        0.0,
        0.0,
        1.0,
        0.0,
        6.839625835418701,
        0.0,
        0.0,
        1.0
      ],
      "name": "tree_1"
    },
    {
      "mesh": 0,
      "name": "Object_4"
    },
    {
      "children": [
        6
      ],
      "name": "leaves_0"
    },
    {
      "mesh": 1,
      "name": "Object_6"
    }
  ],
  "scene": 0,
  "scenes": [
    {
      "name": "Sketchfab_Scene",
      "nodes": [
        0
      ]
    }
  ]
}
